<?xml version="1.0" encoding="UTF-8" standalone="no"?>
<svg
   version="1.1"
   viewBox="0 0 31525.933 22291.667"
   id="svg706"
   sodipodi:docname="gpio.svg"
   inkscape:version="1.2 (dc2aedaf03, 2022-05-15)"
   xmlns:inkscape="http://www.inkscape.org/namespaces/inkscape"
   xmlns:sodipodi="http://sodipodi.sourceforge.net/DTD/sodipodi-0.dtd"
   xmlns="http://www.w3.org/2000/svg"
   xmlns:svg="http://www.w3.org/2000/svg"
   xmlns:rdf="http://www.w3.org/1999/02/22-rdf-syntax-ns#"
   xmlns:cc="http://creativecommons.org/ns#"
   xmlns:dc="http://purl.org/dc/elements/1.1/">
  <defs
     id="defs710" />
  <sodipodi:namedview
     id="namedview708"
     pagecolor="#ffffff"
     bordercolor="#666666"
     borderopacity="1.0"
     inkscape:showpageshadow="2"
     inkscape:pageopacity="0.0"
     inkscape:pagecheckerboard="0"
     inkscape:deskcolor="#d1d1d1"
     inkscape:document-units="cm"
     showgrid="false"
     inkscape:zoom="2.2691081"
     inkscape:cx="138.82106"
     inkscape:cy="115.68422"
     inkscape:current-layer="svg706" />
  <title
     id="title2">SVG Picture created as gpio.svg date 2022/08/31 19:48:30 </title>
  <desc
     id="desc4">Picture generated by Eeschema-SVG </desc>
  <g
     style="fill:#000000;fill-opacity:1;stroke:#000000;stroke-linecap:round;stroke-linejoin:round;stroke-opacity:1"
     id="g6"
     transform="translate(-47435.513,-28378.842)" />
  <g
     style="fill:#f5f4ef;fill-opacity:0;stroke:#f5f4ef;stroke-width:0;stroke-linecap:round;stroke-linejoin:round;stroke-opacity:1"
     id="g8"
     transform="translate(-47435.513,-28378.842)" />
  <g
     style="fill:#f5f4ef;fill-opacity:1;stroke:#f5f4ef;stroke-width:0.03937;stroke-linecap:round;stroke-linejoin:round;stroke-opacity:1"
     id="g12"
     transform="matrix(0.26961364,0,0,0.26961364,0.0051422,0.0055483)">
    <rect
       x="0"
       y="0"
       width="116930"
       height="82680"
       rx="0.000000"
       id="rect10" />
  </g>
  <g
     style="fill:#006464;fill-opacity:0;stroke:#006464;stroke-width:60;stroke-linecap:round;stroke-linejoin:round;stroke-opacity:1"
     id="g668"
     transform="translate(-47435.513,-28378.842)" />
  <g
     id="g1338"
     transform="translate(-45739.814,-27346.867)">
    <g
       style="fill:#f5f4ef;fill-opacity:1;stroke:#f5f4ef;stroke-width:60;stroke-linecap:round;stroke-linejoin:round;stroke-opacity:1"
       id="g42">
      <g
         id="g14" />
      <g
         style="fill:#840000;fill-opacity:1;stroke:#840000;stroke-width:60;stroke-linecap:round;stroke-linejoin:round;stroke-opacity:1"
         id="g16" />
      <g
         style="fill:#840000;fill-opacity:0;stroke:#840000;stroke-width:60;stroke-linecap:round;stroke-linejoin:round;stroke-opacity:1"
         id="g24">
        <path
           style="fill:none;fill-opacity:0;stroke:#840000;stroke-width:60;stroke-linecap:round;stroke-linejoin:round;stroke-opacity:1"
           d="m 57700,30000 300,-500"
           id="path18" />
        <path
           style="fill:none;fill-opacity:0;stroke:#840000;stroke-width:60;stroke-linecap:round;stroke-linejoin:round;stroke-opacity:1"
           d="M 58000,30500 V 29500"
           id="path20" />
        <path
           style="fill:none;fill-opacity:0;stroke:#840000;stroke-width:60;stroke-linecap:round;stroke-linejoin:round;stroke-opacity:1"
           d="m 58000,29500 300,500"
           id="path22" />
      </g>
      <g
         style="fill:#006464;fill-opacity:0;stroke:#006464;stroke-width:60;stroke-linecap:round;stroke-linejoin:round;stroke-opacity:1"
         id="g40">
        <text
           x="58000"
           y="28749.961"
           textLength="1653.8188"
           font-size="666.654px"
           lengthAdjust="spacingAndGlyphs"
           text-anchor="middle"
           opacity="0"
           id="text26">+5V</text>
        <g
           class="stroked-text"
           id="g38">
          <desc
             id="desc28">+5V</desc>
          <path
             d="m 57357,28535 h 381"
             id="path30" />
          <path
             d="m 57547,28726 v -381"
             id="path32" />
          <path
             d="m 58214,28226 h -238 l -24,238 24,-24 47,-24 h 119 l 48,24 24,24 24,47 v 119 l -24,48 -24,24 -48,24 h -119 l -47,-24 -24,-24"
             id="path34" />
          <path
             d="m 58380,28226 167,500 167,-500"
             id="path36" />
        </g>
      </g>
    </g>
    <g
       style="fill:#006464;fill-opacity:0;stroke:#006464;stroke-width:60;stroke-linecap:round;stroke-linejoin:round;stroke-opacity:1"
       id="g84">
      <g
         id="g44" />
      <g
         style="fill:#840000;fill-opacity:0;stroke:#840000;stroke-width:60;stroke-linecap:round;stroke-linejoin:round;stroke-opacity:1"
         id="g46" />
      <g
         style="fill:#840000;fill-opacity:0;stroke:#840000;stroke-width:100;stroke-linecap:round;stroke-linejoin:round;stroke-opacity:1"
         id="g50">
        <rect
           x="66500"
           y="35100"
           width="2000"
           height="800"
           rx="0.000000"
           id="rect48" />
      </g>
      <g
         style="fill:#840000;fill-opacity:0;stroke:#840000;stroke-width:60;stroke-linecap:round;stroke-linejoin:round;stroke-opacity:1"
         id="g56">
        <path
           d="m 66500,35500 h -500"
           id="path52" />
        <path
           d="m 68500,35500 h 500"
           id="path54" />
      </g>
      <g
         style="fill:#006464;fill-opacity:0;stroke:#006464;stroke-width:60;stroke-linecap:round;stroke-linejoin:round;stroke-opacity:1"
         id="g82">
        <text
           x="67499.961"
           y="33250"
           textLength="1036.1812"
           font-size="666.654px"
           lengthAdjust="spacingAndGlyphs"
           text-anchor="middle"
           opacity="0"
           id="text58">R1</text>
        <g
           class="stroked-text"
           id="g70">
          <desc
             id="desc60">R1</desc>
          <path
             d="m 67416,33226 -167,-238"
             id="path62" />
          <path
             d="m 67130,33226 v -500 h 191 l 47,24 24,23 24,48 v 71 l -24,48 -24,24 -47,24 h -191"
             id="path64" />
          <path
             d="m 67892,33226 h -285"
             id="path66" />
          <path
             d="m 67749,33226 v -500 l -47,71 -48,48 -47,24"
             id="path68" />
        </g>
        <text
           x="67500"
           y="34250"
           textLength="560"
           font-size="666.654px"
           lengthAdjust="spacingAndGlyphs"
           text-anchor="middle"
           opacity="0"
           id="text72">R</text>
        <g
           class="stroked-text"
           id="g80">
          <desc
             id="desc74">R</desc>
          <path
             d="m 67654,34226 -166,-238"
             id="path76" />
          <path
             d="m 67369,34226 v -500 h 190 l 48,24 23,23 24,48 v 71 l -24,48 -23,24 -48,24 h -190"
             id="path78" />
        </g>
      </g>
    </g>
    <g
       style="fill:#006464;fill-opacity:0;stroke:#006464;stroke-width:60;stroke-linecap:round;stroke-linejoin:round;stroke-opacity:1"
       id="g140">
      <g
         id="g86" />
      <g
         style="fill:#840000;fill-opacity:0;stroke:#840000;stroke-width:60;stroke-linecap:round;stroke-linejoin:round;stroke-opacity:1"
         id="g88" />
      <g
         style="fill:#840000;fill-opacity:0;stroke:#840000;stroke-width:100;stroke-linecap:round;stroke-linejoin:round;stroke-opacity:1"
         id="g92">
        <path
           style="fill:none;fill-opacity:0;stroke:#840000;stroke-width:100;stroke-linecap:round;stroke-linejoin:round;stroke-opacity:1"
           d="m 72500,35000 v 1000"
           id="path90" />
      </g>
      <g
         style="fill:#840000;fill-opacity:0;stroke:#840000;stroke-width:60;stroke-linecap:round;stroke-linejoin:round;stroke-opacity:1"
         id="g96">
        <path
           style="fill:none;fill-opacity:0;stroke:#840000;stroke-width:60;stroke-linecap:round;stroke-linejoin:round;stroke-opacity:1"
           d="M 72500,35500 H 71500"
           id="path94" />
      </g>
      <g
         style="fill:#840000;fill-opacity:0;stroke:#840000;stroke-width:100;stroke-linecap:round;stroke-linejoin:round;stroke-opacity:1"
         id="g100">
        <path
           style="fill:none;fill-opacity:0;stroke:#840000;stroke-width:100;stroke-linecap:round;stroke-linejoin:round;stroke-opacity:1"
           d="m 71500,35000 v 1000 l 1000,-500 z"
           id="path98" />
      </g>
      <g
         style="fill:#840000;fill-opacity:0;stroke:#840000;stroke-width:60;stroke-linecap:round;stroke-linejoin:round;stroke-opacity:1"
         id="g110">
        <path
           style="fill:none;fill-opacity:0;stroke:#840000;stroke-width:60;stroke-linecap:round;stroke-linejoin:round;stroke-opacity:1"
           d="m 73200,35200 600,-600 h -300 300 v 300"
           id="path102" />
        <path
           style="fill:none;fill-opacity:0;stroke:#840000;stroke-width:60;stroke-linecap:round;stroke-linejoin:round;stroke-opacity:1"
           d="m 72700,35200 600,-600 h -300 300 v 300"
           id="path104" />
        <path
           d="m 72500,35500 h 1000"
           id="path106" />
        <path
           d="M 71500,35500 H 70500"
           id="path108" />
      </g>
      <g
         style="fill:#006464;fill-opacity:0;stroke:#006464;stroke-width:60;stroke-linecap:round;stroke-linejoin:round;stroke-opacity:1"
         id="g138">
        <text
           x="72624.961"
           y="32750"
           textLength="1036.1812"
           font-size="666.654px"
           lengthAdjust="spacingAndGlyphs"
           text-anchor="middle"
           opacity="0"
           id="text112">D1</text>
        <g
           class="stroked-text"
           id="g122">
          <desc
             id="desc114">D1</desc>
          <path
             d="m 72255,32726 v -500 h 119 l 72,24 47,47 24,48 24,95 v 71 l -24,96 -24,47 -47,48 -72,24 h -119"
             id="path116" />
          <path
             d="m 73017,32726 h -285"
             id="path118" />
          <path
             d="m 72874,32726 v -500 l -47,71 -48,48 -47,24"
             id="path120" />
        </g>
        <text
           x="72624.961"
           y="33750"
           textLength="1417.126"
           font-size="666.654px"
           lengthAdjust="spacingAndGlyphs"
           text-anchor="middle"
           opacity="0"
           id="text124">LED</text>
        <g
           class="stroked-text"
           id="g136">
          <desc
             id="desc126">LED</desc>
          <path
             d="m 72303,33726 h -238 v -500"
             id="path128" />
          <path
             d="m 72470,33464 h 166"
             id="path130" />
          <path
             d="m 72708,33726 h -238 v -500 h 238"
             id="path132" />
          <path
             d="m 72922,33726 v -500 h 119 l 72,24 47,47 24,48 24,95 v 71 l -24,96 -24,47 -47,48 -72,24 h -119"
             id="path134" />
        </g>
      </g>
    </g>
    <g
       style="fill:#006464;fill-opacity:0;stroke:#006464;stroke-width:60;stroke-linecap:round;stroke-linejoin:round;stroke-opacity:1"
       id="g162">
      <g
         id="g142" />
      <g
         style="fill:#840000;fill-opacity:0;stroke:#840000;stroke-width:60;stroke-linecap:round;stroke-linejoin:round;stroke-opacity:1"
         id="g146">
        <path
           style="fill:none;fill-opacity:0;stroke:#840000;stroke-width:60;stroke-linecap:round;stroke-linejoin:round;stroke-opacity:1"
           d="m 75000,37000 v 500 h 500 l -500,500 -500,-500 h 500"
           id="path144" />
      </g>
      <g
         style="fill:#006464;fill-opacity:0;stroke:#006464;stroke-width:60;stroke-linecap:round;stroke-linejoin:round;stroke-opacity:1"
         id="g160">
        <text
           x="75000"
           y="39249.961"
           textLength="1583.8188"
           font-size="666.654px"
           lengthAdjust="spacingAndGlyphs"
           text-anchor="middle"
           opacity="0"
           id="text148">GND</text>
        <g
           class="stroked-text"
           id="g158">
          <desc
             id="desc150">GND</desc>
          <path
             d="m 74619,38749 -48,-23 h -71 l -72,23 -48,48 -23,48 -24,95 v 71 l 24,96 23,47 48,48 72,24 h 47 l 72,-24 23,-24 v -167 h -95"
             id="path152" />
          <path
             d="m 74857,39226 v -500 l 285,500 v -500"
             id="path154" />
          <path
             d="m 75380,39226 v -500 h 120 l 71,23 48,48 23,48 24,95 v 71 l -24,96 -23,47 -48,48 -71,24 h -120"
             id="path156" />
        </g>
      </g>
    </g>
    <g
       style="fill:#006464;fill-opacity:0;stroke:#006464;stroke-width:60;stroke-linecap:round;stroke-linejoin:round;stroke-opacity:1"
       id="g220">
      <g
         id="g164" />
      <g
         style="fill:#840000;fill-opacity:0;stroke:#840000;stroke-width:60;stroke-linecap:round;stroke-linejoin:round;stroke-opacity:1"
         id="g178">
        <circle
           cx="66000"
           cy="37700"
           r="200"
           id="circle166" />
        <path
           style="fill:none;fill-opacity:0;stroke:#840000;stroke-width:60;stroke-linecap:round;stroke-linejoin:round;stroke-opacity:1"
           d="m 66500,38500 h 700"
           id="path168" />
        <path
           style="fill:none;fill-opacity:0;stroke:#840000;stroke-width:60;stroke-linecap:round;stroke-linejoin:round;stroke-opacity:1"
           d="M 66500,39500 V 37500"
           id="path170" />
        <circle
           cx="66000"
           cy="39300"
           r="200"
           id="circle172" />
        <path
           d="M 66000,37500 V 36500"
           id="path174" />
        <path
           d="m 66000,39500 v 1000"
           id="path176" />
      </g>
      <g
         style="fill:#006464;fill-opacity:0;stroke:#006464;stroke-width:60;stroke-linecap:round;stroke-linejoin:round;stroke-opacity:1"
         id="g218">
        <text
           x="68293.148"
           y="38249.922"
           textLength="1583.8188"
           font-size="666.654px"
           lengthAdjust="spacingAndGlyphs"
           text-anchor="middle"
           opacity="0"
           id="text180">SW1</text>
        <g
           class="stroked-text"
           id="g192">
          <desc
             id="desc182">SW1</desc>
          <path
             d="m 67626,38202 71,24 h 119 l 48,-24 24,-24 24,-48 v -47 l -24,-48 -24,-24 -48,-24 -95,-23 -47,-24 -24,-24 -24,-48 v -47 l 24,-48 24,-24 47,-23 h 119 l 72,23"
             id="path184" />
          <path
             d="m 68078,37726 119,500 96,-358 95,358 119,-500"
             id="path186" />
          <path
             d="m 68959,38226 h -285"
             id="path188" />
          <path
             d="m 68816,38226 v -500 l -47,71 -48,48 -47,23"
             id="path190" />
        </g>
        <text
           x="69150.312"
           y="39249.922"
           textLength="3298.1104"
           font-size="666.654px"
           lengthAdjust="spacingAndGlyphs"
           text-anchor="middle"
           opacity="0"
           id="text194">SW_Push</text>
        <g
           class="stroked-text"
           id="g216">
          <desc
             id="desc196">SW_Push</desc>
          <path
             d="m 67626,39202 71,24 h 119 l 48,-24 24,-24 24,-48 v -47 l -24,-48 -24,-24 -48,-24 -95,-23 -47,-24 -24,-24 -24,-48 v -47 l 24,-48 24,-24 47,-23 h 119 l 72,23"
             id="path198" />
          <path
             d="m 68078,38726 119,500 96,-358 95,358 119,-500"
             id="path200" />
          <path
             d="m 68578,39273 h 381"
             id="path202" />
          <path
             d="m 69078,39226 v -500 h 191 l 47,23 24,24 24,48 v 71 l -24,48 -24,24 -47,23 h -191"
             id="path204" />
          <path
             d="m 69793,38892 v 334"
             id="path206" />
          <path
             d="m 69578,38892 v 262 l 24,48 48,24 h 71 l 48,-24 24,-24"
             id="path208" />
          <path
             d="m 70007,39202 48,24 h 95 l 47,-24 24,-48 v -24 l -24,-47 -47,-24 h -72 l -47,-24 -24,-48 v -23 l 24,-48 47,-24 h 72 l 47,24"
             id="path210" />
          <path
             d="m 70436,39226 v -500"
             id="path212" />
          <path
             d="m 70650,39226 v -262 l -24,-48 -48,-24 h -71 l -48,24 -23,24"
             id="path214" />
        </g>
      </g>
    </g>
    <g
       style="fill:#006464;fill-opacity:0;stroke:#006464;stroke-width:60;stroke-linecap:round;stroke-linejoin:round;stroke-opacity:1"
       id="g622">
      <g
         id="g222" />
      <g
         style="fill:#840000;fill-opacity:0;stroke:#840000;stroke-width:60;stroke-linecap:round;stroke-linejoin:round;stroke-opacity:1"
         id="g224" />
      <g
         style="fill:#ffffc2;fill-opacity:0;stroke:#ffffc2;stroke-width:60;stroke-linecap:round;stroke-linejoin:round;stroke-opacity:1"
         id="g226" />
      <g
         style="fill:#ffffc2;fill-opacity:0.6;stroke:#ffffc2;stroke-width:0.03937;stroke-linecap:round;stroke-linejoin:round;stroke-opacity:1"
         id="g230">
        <rect
           x="53000"
           y="33500"
           width="10000"
           height="10000"
           rx="0.000000"
           id="rect228" />
      </g>
      <g
         style="fill:#840000;fill-opacity:0.6;stroke:#840000;stroke-width:0.03937;stroke-linecap:round;stroke-linejoin:round;stroke-opacity:1"
         id="g232" />
      <g
         style="fill:#840000;fill-opacity:0;stroke:#840000;stroke-width:100;stroke-linecap:round;stroke-linejoin:round;stroke-opacity:1"
         id="g238">
        <rect
           x="53000"
           y="33500"
           width="10000"
           height="10000"
           rx="0.000000"
           id="rect234" />
        <rect
           x="53000"
           y="33500"
           width="10000"
           height="10000"
           rx="0.000000"
           id="rect236" />
      </g>
      <g
         style="fill:#840000;fill-opacity:0;stroke:#840000;stroke-width:60;stroke-linecap:round;stroke-linejoin:round;stroke-opacity:1"
         id="g242">
        <path
           d="m 63000,40500 h 1000"
           id="path240" />
      </g>
      <g
         style="fill:#006464;fill-opacity:0;stroke:#006464;stroke-width:60;stroke-linecap:round;stroke-linejoin:round;stroke-opacity:1"
         id="g286">
        <text
           x="62800"
           y="40750"
           textLength="4321.8896"
           font-size="666.654px"
           lengthAdjust="spacingAndGlyphs"
           text-anchor="end"
           opacity="0"
           id="text244">~{RESET}/PB5</text>
        <g
           class="stroked-text"
           id="g284">
          <desc
             id="desc246">~{RESET}/PB5</desc>
          <path
             d="m 58508,40085 h 500"
             id="path248" />
          <path
             d="m 58912,40726 -166,-238"
             id="path250" />
          <path
             d="m 58627,40726 v -500 h 190 l 48,24 24,23 23,48 v 71 l -23,48 -24,24 -48,24 h -190"
             id="path252" />
          <path
             d="m 59008,40085 h 452"
             id="path254" />
          <path
             d="m 59127,40464 h 166"
             id="path256" />
          <path
             d="m 59365,40726 h -238 v -500 h 238"
             id="path258" />
          <path
             d="m 59460,40085 h 476"
             id="path260" />
          <path
             d="m 59555,40702 72,24 h 119 l 47,-24 24,-24 24,-48 v -47 l -24,-48 -24,-24 -47,-23 -96,-24 -47,-24 -24,-24 -24,-47 v -48 l 24,-48 24,-23 47,-24 h 120 l 71,24"
             id="path262" />
          <path
             d="m 59936,40085 h 453"
             id="path264" />
          <path
             d="m 60055,40464 h 167"
             id="path266" />
          <path
             d="m 60293,40726 h -238 v -500 h 238"
             id="path268" />
          <path
             d="m 60389,40085 h 381"
             id="path270" />
          <path
             d="m 60436,40226 h 286"
             id="path272" />
          <path
             d="m 60579,40726 v -500"
             id="path274" />
          <path
             d="m 61246,40202 -429,643"
             id="path276" />
          <path
             d="m 61412,40726 v -500 h 191 l 47,24 24,23 24,48 v 71 l -24,48 -24,24 -47,24 h -191"
             id="path278" />
          <path
             d="m 62079,40464 71,24 24,23 24,48 v 71 l -24,48 -24,24 -47,24 h -191 v -500 h 167 l 48,24 23,23 24,48 v 48 l -24,47 -23,24 -48,24 h -167"
             id="path280" />
          <path
             d="m 62650,40226 h -238 l -23,238 23,-24 48,-24 h 119 l 48,24 23,24 24,47 v 119 l -24,48 -23,24 -48,24 h -119 l -48,-24 -23,-24"
             id="path282" />
        </g>
      </g>
      <g
         style="fill:#a90000;fill-opacity:0;stroke:#a90000;stroke-width:60;stroke-linecap:round;stroke-linejoin:round;stroke-opacity:1"
         id="g298">
        <text
           x="63500"
           y="40400"
           textLength="536.18109"
           font-size="666.654px"
           lengthAdjust="spacingAndGlyphs"
           text-anchor="middle"
           opacity="0"
           id="text288">1</text>
        <g
           class="stroked-text"
           id="g296">
          <desc
             id="desc290">1</desc>
          <path
             d="m 63642,40376 h -285"
             id="path292" />
          <path
             d="m 63500,40376 v -500 l -48,71 -48,48 -47,24"
             id="path294" />
        </g>
      </g>
      <g
         style="fill:#840000;fill-opacity:0;stroke:#840000;stroke-width:60;stroke-linecap:round;stroke-linejoin:round;stroke-opacity:1"
         id="g302">
        <path
           d="m 63000,38500 h 1000"
           id="path300" />
      </g>
      <g
         style="fill:#006464;fill-opacity:0;stroke:#006464;stroke-width:60;stroke-linecap:round;stroke-linejoin:round;stroke-opacity:1"
         id="g336">
        <text
           x="62800"
           y="38750"
           textLength="4226.6533"
           font-size="666.654px"
           lengthAdjust="spacingAndGlyphs"
           text-anchor="end"
           opacity="0"
           id="text304">XTAL1/PB3</text>
        <g
           class="stroked-text"
           id="g334">
          <desc
             id="desc306">XTAL1/PB3</desc>
          <path
             d="m 58674,38226 334,500"
             id="path308" />
          <path
             d="m 59008,38226 -334,500"
             id="path310" />
          <path
             d="m 59127,38226 h 285"
             id="path312" />
          <path
             d="m 59270,38726 v -500"
             id="path314" />
          <path
             d="m 59555,38583 h 238"
             id="path316" />
          <path
             d="m 59508,38726 166,-500 167,500"
             id="path318" />
          <path
             d="m 60246,38726 h -238 v -500"
             id="path320" />
          <path
             d="m 60674,38726 h -285"
             id="path322" />
          <path
             d="m 60531,38726 v -500 l -47,71 -48,48 -47,24"
             id="path324" />
          <path
             d="m 61246,38202 -429,643"
             id="path326" />
          <path
             d="m 61412,38726 v -500 h 191 l 47,24 24,23 24,48 v 71 l -24,48 -24,24 -47,24 h -191"
             id="path328" />
          <path
             d="m 62079,38464 71,24 24,23 24,48 v 71 l -24,48 -24,24 -47,24 h -191 v -500 h 167 l 48,24 23,23 24,48 v 48 l -24,47 -23,24 -48,24 h -167"
             id="path330" />
          <path
             d="m 62365,38226 h 309 l -166,190 h 71 l 48,24 23,24 24,47 v 119 l -24,48 -23,24 -48,24 h -143 l -47,-24 -24,-24"
             id="path332" />
        </g>
      </g>
      <g
         style="fill:#a90000;fill-opacity:0;stroke:#a90000;stroke-width:60;stroke-linecap:round;stroke-linejoin:round;stroke-opacity:1"
         id="g346">
        <text
           x="63500"
           y="38400"
           textLength="536.18109"
           font-size="666.654px"
           lengthAdjust="spacingAndGlyphs"
           text-anchor="middle"
           opacity="0"
           id="text338">2</text>
        <g
           class="stroked-text"
           id="g344">
          <desc
             id="desc340">2</desc>
          <path
             d="m 63357,37923 23,-23 48,-24 h 119 l 48,24 24,23 23,48 v 48 l -23,71 -286,286 h 309"
             id="path342" />
        </g>
      </g>
      <g
         style="fill:#840000;fill-opacity:0;stroke:#840000;stroke-width:60;stroke-linecap:round;stroke-linejoin:round;stroke-opacity:1"
         id="g350">
        <path
           d="m 63000,39500 h 1000"
           id="path348" />
      </g>
      <g
         style="fill:#006464;fill-opacity:0;stroke:#006464;stroke-width:60;stroke-linecap:round;stroke-linejoin:round;stroke-opacity:1"
         id="g384">
        <text
           x="62800"
           y="39750"
           textLength="4226.6533"
           font-size="666.654px"
           lengthAdjust="spacingAndGlyphs"
           text-anchor="end"
           opacity="0"
           id="text352">XTAL2/PB4</text>
        <g
           class="stroked-text"
           id="g382">
          <desc
             id="desc354">XTAL2/PB4</desc>
          <path
             d="m 58674,39226 334,500"
             id="path356" />
          <path
             d="m 59008,39226 -334,500"
             id="path358" />
          <path
             d="m 59127,39226 h 285"
             id="path360" />
          <path
             d="m 59270,39726 v -500"
             id="path362" />
          <path
             d="m 59555,39583 h 238"
             id="path364" />
          <path
             d="m 59508,39726 166,-500 167,500"
             id="path366" />
          <path
             d="m 60246,39726 h -238 v -500"
             id="path368" />
          <path
             d="m 60389,39273 23,-23 48,-24 h 119 l 48,24 23,23 24,48 v 48 l -24,71 -285,286 h 309"
             id="path370" />
          <path
             d="m 61246,39202 -429,643"
             id="path372" />
          <path
             d="m 61412,39726 v -500 h 191 l 47,24 24,23 24,48 v 71 l -24,48 -24,24 -47,24 h -191"
             id="path374" />
          <path
             d="m 62079,39464 71,24 24,23 24,48 v 71 l -24,48 -24,24 -47,24 h -191 v -500 h 167 l 48,24 23,23 24,48 v 48 l -24,47 -23,24 -48,24 h -167"
             id="path376" />
          <path
             d="m 62627,39392 v 334"
             id="path378" />
          <path
             d="m 62508,39202 -119,357 h 309"
             id="path380" />
        </g>
      </g>
      <g
         style="fill:#a90000;fill-opacity:0;stroke:#a90000;stroke-width:60;stroke-linecap:round;stroke-linejoin:round;stroke-opacity:1"
         id="g394">
        <text
           x="63500"
           y="39400"
           textLength="536.18109"
           font-size="666.654px"
           lengthAdjust="spacingAndGlyphs"
           text-anchor="middle"
           opacity="0"
           id="text386">3</text>
        <g
           class="stroked-text"
           id="g392">
          <desc
             id="desc388">3</desc>
          <path
             d="m 63333,38876 h 309 l -166,190 h 71 l 48,24 24,24 23,47 v 119 l -23,48 -24,24 -48,24 h -143 l -47,-24 -24,-24"
             id="path390" />
        </g>
      </g>
      <g
         style="fill:#840000;fill-opacity:0;stroke:#840000;stroke-width:60;stroke-linecap:round;stroke-linejoin:round;stroke-opacity:1"
         id="g398">
        <path
           d="m 58000,43500 v 1000"
           id="path396" />
      </g>
      <g
         style="fill:#006464;fill-opacity:0;stroke:#006464;stroke-width:60;stroke-linecap:round;stroke-linejoin:round;stroke-opacity:1"
         id="g414">
        <g
           transform="rotate(-90,58000,43300)"
           id="g402">
          <text
             x="58000"
             y="43550"
             textLength="1583.8188"
             font-size="666.654px"
             lengthAdjust="spacingAndGlyphs"
             text-anchor="start"
             opacity="0"
             id="text400">GND</text>
        </g>
        <g
           class="stroked-text"
           id="g412">
          <desc
             id="desc404">GND</desc>
          <path
             d="m 57750,42889 -24,47 v 72 l 24,71 47,48 48,23 95,24 h 71 l 96,-24 47,-23 48,-48 24,-71 v -48 l -24,-71 -24,-24 h -167 v 95"
             id="path406" />
          <path
             d="m 58226,42650 h -500 l 500,-285 h -500"
             id="path408" />
          <path
             d="m 58226,42127 h -500 v -119 l 24,-72 47,-47 48,-24 95,-24 h 71 l 96,24 47,24 48,47 24,72 v 119"
             id="path410" />
        </g>
      </g>
      <g
         style="fill:#a90000;fill-opacity:0;stroke:#a90000;stroke-width:60;stroke-linecap:round;stroke-linejoin:round;stroke-opacity:1"
         id="g428">
        <g
           transform="rotate(-90,57900,44000)"
           id="g418">
          <text
             x="57900"
             y="44000"
             textLength="536.18109"
             font-size="666.654px"
             lengthAdjust="spacingAndGlyphs"
             text-anchor="middle"
             opacity="0"
             id="text416">4</text>
        </g>
        <g
           class="stroked-text"
           id="g426">
          <desc
             id="desc420">4</desc>
          <path
             d="m 57542,43904 h 334"
             id="path422" />
          <path
             d="m 57352,44023 357,119 v -309"
             id="path424" />
        </g>
      </g>
      <g
         style="fill:#840000;fill-opacity:0;stroke:#840000;stroke-width:60;stroke-linecap:round;stroke-linejoin:round;stroke-opacity:1"
         id="g432">
        <path
           d="m 63000,35500 h 1000"
           id="path430" />
      </g>
      <g
         style="fill:#006464;fill-opacity:0;stroke:#006464;stroke-width:60;stroke-linecap:round;stroke-linejoin:round;stroke-opacity:1"
         id="g464">
        <text
           x="62800"
           y="35750"
           textLength="3869.5276"
           font-size="666.654px"
           lengthAdjust="spacingAndGlyphs"
           text-anchor="end"
           opacity="0"
           id="text434">AREF/PB0</text>
        <g
           class="stroked-text"
           id="g462">
          <desc
             id="desc436">AREF/PB0</desc>
          <path
             d="m 59055,35583 h 238"
             id="path438" />
          <path
             d="m 59008,35726 166,-500 167,500"
             id="path440" />
          <path
             d="m 59793,35726 -166,-238"
             id="path442" />
          <path
             d="m 59508,35726 v -500 h 190 l 48,24 24,23 23,48 v 71 l -23,48 -24,24 -48,24 h -190"
             id="path444" />
          <path
             d="m 60008,35464 h 166"
             id="path446" />
          <path
             d="m 60246,35726 h -238 v -500 h 238"
             id="path448" />
          <path
             d="m 60627,35464 h -167"
             id="path450" />
          <path
             d="m 60460,35726 v -500 h 238"
             id="path452" />
          <path
             d="m 61246,35202 -429,643"
             id="path454" />
          <path
             d="m 61412,35726 v -500 h 191 l 47,24 24,23 24,48 v 71 l -24,48 -24,24 -47,24 h -191"
             id="path456" />
          <path
             d="m 62079,35464 71,24 24,23 24,48 v 71 l -24,48 -24,24 -47,24 h -191 v -500 h 167 l 48,24 23,23 24,48 v 48 l -24,47 -23,24 -48,24 h -167"
             id="path458" />
          <path
             d="m 62508,35226 h 47 l 48,24 24,23 23,48 24,95 v 119 l -24,95 -23,48 -24,24 -48,24 h -47 l -48,-24 -24,-24 -24,-48 -23,-95 v -119 l 23,-95 24,-48 24,-23 48,-24"
             id="path460" />
        </g>
      </g>
      <g
         style="fill:#a90000;fill-opacity:0;stroke:#a90000;stroke-width:60;stroke-linecap:round;stroke-linejoin:round;stroke-opacity:1"
         id="g474">
        <text
           x="63500"
           y="35400"
           textLength="536.18109"
           font-size="666.654px"
           lengthAdjust="spacingAndGlyphs"
           text-anchor="middle"
           opacity="0"
           id="text466">5</text>
        <g
           class="stroked-text"
           id="g472">
          <desc
             id="desc468">5</desc>
          <path
             d="m 63619,34876 h -239 l -23,238 23,-24 48,-24 h 119 l 48,24 24,24 23,47 v 119 l -23,48 -24,24 -48,24 h -119 l -48,-24 -23,-24"
             id="path470" />
        </g>
      </g>
      <g
         style="fill:#840000;fill-opacity:0;stroke:#840000;stroke-width:60;stroke-linecap:round;stroke-linejoin:round;stroke-opacity:1"
         id="g478">
        <path
           d="m 63000,36500 h 1000"
           id="path476" />
      </g>
      <g
         style="fill:#006464;fill-opacity:0;stroke:#006464;stroke-width:60;stroke-linecap:round;stroke-linejoin:round;stroke-opacity:1"
         id="g494">
        <text
           x="62800"
           y="36750"
           textLength="1536.1812"
           font-size="666.654px"
           lengthAdjust="spacingAndGlyphs"
           text-anchor="end"
           opacity="0"
           id="text480">PB1</text>
        <g
           class="stroked-text"
           id="g492">
          <desc
             id="desc482">PB1</desc>
          <path
             d="m 61412,36726 v -500 h 191 l 47,24 24,23 24,48 v 71 l -24,48 -24,24 -47,24 h -191"
             id="path484" />
          <path
             d="m 62079,36464 71,24 24,23 24,48 v 71 l -24,48 -24,24 -47,24 h -191 v -500 h 167 l 48,24 23,23 24,48 v 48 l -24,47 -23,24 -48,24 h -167"
             id="path486" />
          <path
             d="m 62674,36726 h -285"
             id="path488" />
          <path
             d="m 62531,36726 v -500 l -47,71 -48,48 -47,24"
             id="path490" />
        </g>
      </g>
      <g
         style="fill:#a90000;fill-opacity:0;stroke:#a90000;stroke-width:60;stroke-linecap:round;stroke-linejoin:round;stroke-opacity:1"
         id="g504">
        <text
           x="63500"
           y="36400"
           textLength="536.18109"
           font-size="666.654px"
           lengthAdjust="spacingAndGlyphs"
           text-anchor="middle"
           opacity="0"
           id="text496">6</text>
        <g
           class="stroked-text"
           id="g502">
          <desc
             id="desc498">6</desc>
          <path
             d="m 63595,35876 h -95 l -48,24 -24,23 -48,72 -23,95 v 190 l 23,48 24,24 48,24 h 95 l 48,-24 24,-24 23,-48 v -119 l -23,-47 -24,-24 -48,-24 h -95 l -48,24 -24,24 -23,47"
             id="path500" />
        </g>
      </g>
      <g
         style="fill:#840000;fill-opacity:0;stroke:#840000;stroke-width:60;stroke-linecap:round;stroke-linejoin:round;stroke-opacity:1"
         id="g508">
        <path
           d="m 63000,37500 h 1000"
           id="path506" />
      </g>
      <g
         style="fill:#006464;fill-opacity:0;stroke:#006464;stroke-width:60;stroke-linecap:round;stroke-linejoin:round;stroke-opacity:1"
         id="g522">
        <text
           x="62800"
           y="37750"
           textLength="1536.1812"
           font-size="666.654px"
           lengthAdjust="spacingAndGlyphs"
           text-anchor="end"
           opacity="0"
           id="text510">PB2</text>
        <g
           class="stroked-text"
           id="g520">
          <desc
             id="desc512">PB2</desc>
          <path
             d="m 61412,37726 v -500 h 191 l 47,24 24,23 24,48 v 71 l -24,48 -24,24 -47,24 h -191"
             id="path514" />
          <path
             d="m 62079,37464 71,24 24,23 24,48 v 71 l -24,48 -24,24 -47,24 h -191 v -500 h 167 l 48,24 23,23 24,48 v 48 l -24,47 -23,24 -48,24 h -167"
             id="path516" />
          <path
             d="m 62389,37273 23,-23 48,-24 h 119 l 48,24 23,23 24,48 v 48 l -24,71 -285,286 h 309"
             id="path518" />
        </g>
      </g>
      <g
         style="fill:#a90000;fill-opacity:0;stroke:#a90000;stroke-width:60;stroke-linecap:round;stroke-linejoin:round;stroke-opacity:1"
         id="g532">
        <text
           x="63500"
           y="37400"
           textLength="536.18109"
           font-size="666.654px"
           lengthAdjust="spacingAndGlyphs"
           text-anchor="middle"
           opacity="0"
           id="text524">7</text>
        <g
           class="stroked-text"
           id="g530">
          <desc
             id="desc526">7</desc>
          <path
             d="m 63333,36876 h 333 l -214,500"
             id="path528" />
        </g>
      </g>
      <g
         style="fill:#840000;fill-opacity:0;stroke:#840000;stroke-width:60;stroke-linecap:round;stroke-linejoin:round;stroke-opacity:1"
         id="g536">
        <path
           d="M 58000,33500 V 32500"
           id="path534" />
      </g>
      <g
         style="fill:#006464;fill-opacity:0;stroke:#006464;stroke-width:60;stroke-linecap:round;stroke-linejoin:round;stroke-opacity:1"
         id="g552">
        <g
           transform="rotate(-90,58000,33700)"
           id="g540">
          <text
             x="58000"
             y="33950"
             textLength="1488.5826"
             font-size="666.654px"
             lengthAdjust="spacingAndGlyphs"
             text-anchor="end"
             opacity="0"
             id="text538">VCC</text>
        </g>
        <g
           class="stroked-text"
           id="g550">
          <desc
             id="desc542">VCC</desc>
          <path
             d="m 57726,35110 500,-166 -500,-167"
             id="path544" />
          <path
             d="m 58178,34325 24,24 24,71 v 48 l -24,71 -48,48 -47,23 -96,24 h -71 l -95,-24 -48,-23 -47,-48 -24,-71 v -48 l 24,-71 23,-24"
             id="path546" />
          <path
             d="m 58178,33825 24,24 24,71 v 48 l -24,71 -48,48 -47,23 -96,24 h -71 l -95,-24 -48,-23 -47,-48 -24,-71 v -48 l 24,-71 23,-24"
             id="path548" />
        </g>
      </g>
      <g
         style="fill:#a90000;fill-opacity:0;stroke:#a90000;stroke-width:60;stroke-linecap:round;stroke-linejoin:round;stroke-opacity:1"
         id="g564">
        <g
           transform="rotate(-90,57900,33000)"
           id="g556">
          <text
             x="57900"
             y="33000"
             textLength="536.18109"
             font-size="666.654px"
             lengthAdjust="spacingAndGlyphs"
             text-anchor="middle"
             opacity="0"
             id="text554">8</text>
        </g>
        <g
           class="stroked-text"
           id="g562">
          <desc
             id="desc558">8</desc>
          <path
             d="m 57590,33047 -24,48 -24,24 -47,23 h -24 l -48,-23 -23,-24 -24,-48 v -95 l 24,-48 23,-24 48,-23 h 24 l 47,23 24,24 24,48 v 95 l 24,48 24,24 47,23 h 95 l 48,-23 24,-24 24,-48 v -95 l -24,-48 -24,-24 -48,-23 h -95 l -47,23 -24,24 -24,48"
             id="path560" />
        </g>
      </g>
      <g
         style="fill:#006464;fill-opacity:0;stroke:#006464;stroke-width:60;stroke-linecap:round;stroke-linejoin:round;stroke-opacity:1"
         id="g620">
        <text
           x="51968.738"
           y="38249.922"
           textLength="1060"
           font-size="666.654px"
           lengthAdjust="spacingAndGlyphs"
           text-anchor="middle"
           opacity="0"
           id="text566">U1</text>
        <g
           class="stroked-text"
           id="g576">
          <desc
             id="desc568">U1</desc>
          <path
             d="m 51587,37726 v 404 l 24,48 24,24 47,24 h 96 l 47,-24 24,-24 24,-48 v -404"
             id="path570" />
          <path
             d="m 52373,38226 h -286"
             id="path572" />
          <path
             d="m 52230,38226 v -500 l -48,71 -47,48 -48,23"
             id="path574" />
        </g>
        <text
           x="49873.504"
           y="39249.922"
           textLength="5250.4727"
           font-size="666.654px"
           lengthAdjust="spacingAndGlyphs"
           text-anchor="middle"
           opacity="0"
           id="text578">ATtiny85-20P</text>
        <g
           class="stroked-text"
           id="g618">
          <desc
             id="desc580">ATtiny85-20P</desc>
          <path
             d="m 47373,39083 h 238"
             id="path582" />
          <path
             d="m 47325,39226 167,-500 167,500"
             id="path584" />
          <path
             d="m 47754,38726 h 286"
             id="path586" />
          <path
             d="m 47897,39226 v -500"
             id="path588" />
          <path
             d="m 48135,38892 h 190"
             id="path590" />
          <path
             d="m 48206,38726 v 428 l 24,48 48,24 h 47"
             id="path592" />
          <path
             d="m 48492,39226 v -334"
             id="path594" />
          <path
             d="m 48492,38726 -24,23 24,24 24,-24 -24,-23 v 47"
             id="path596" />
          <path
             d="m 48730,38892 v 334"
             id="path598" />
          <path
             d="m 48730,38940 24,-24 48,-24 h 71 l 48,24 23,48 v 262"
             id="path600" />
          <path
             d="m 49135,38892 119,334"
             id="path602" />
          <path
             d="m 49373,38892 -119,334 -48,119 -24,23 -47,24"
             id="path604" />
          <path
             d="m 49635,38940 -48,-24 -24,-24 -23,-47 v -24 l 23,-48 24,-24 48,-23 h 95 l 48,23 24,24 23,48 v 24 l -23,47 -24,24 -48,24 h -95 l -48,24 -24,23 -23,48 v 95 l 23,48 24,24 48,24 h 95 l 48,-24 24,-24 23,-48 v -95 l -23,-48 -24,-23 -48,-24"
             id="path606" />
          <path
             d="m 50278,38726 h -238 l -24,238 24,-24 47,-24 h 119 l 48,24 24,24 24,47 v 119 l -24,48 -24,24 -48,24 h -119 l -47,-24 -24,-24"
             id="path608" />
          <path
             d="m 50516,39035 h 381"
             id="path610" />
          <path
             d="m 51111,38773 24,-24 47,-23 h 120 l 47,23 24,24 24,48 v 47 l -24,72 -286,286 h 310"
             id="path612" />
          <path
             d="m 51706,38726 h 48 l 48,23 23,24 24,48 24,95 v 119 l -24,95 -24,48 -23,24 -48,24 h -48 l -47,-24 -24,-24 -24,-48 -24,-95 v -119 l 24,-95 24,-48 24,-24 47,-23"
             id="path614" />
          <path
             d="m 52087,39226 v -500 h 191 l 47,23 24,24 24,48 v 71 l -24,48 -24,24 -47,23 h -191"
             id="path616" />
        </g>
      </g>
    </g>
    <g
       style="fill:#006464;fill-opacity:0;stroke:#006464;stroke-width:60;stroke-linecap:round;stroke-linejoin:round;stroke-opacity:1"
       id="g644">
      <g
         id="g624" />
      <g
         style="fill:#840000;fill-opacity:0;stroke:#840000;stroke-width:60;stroke-linecap:round;stroke-linejoin:round;stroke-opacity:1"
         id="g628">
        <path
           style="fill:none;fill-opacity:0;stroke:#840000;stroke-width:60;stroke-linecap:round;stroke-linejoin:round;stroke-opacity:1"
           d="m 58000,46500 v 500 h 500 l -500,500 -500,-500 h 500"
           id="path626" />
      </g>
      <g
         style="fill:#006464;fill-opacity:0;stroke:#006464;stroke-width:60;stroke-linecap:round;stroke-linejoin:round;stroke-opacity:1"
         id="g642">
        <text
           x="58000"
           y="48749.961"
           textLength="1583.8188"
           font-size="666.654px"
           lengthAdjust="spacingAndGlyphs"
           text-anchor="middle"
           opacity="0"
           id="text630">GND</text>
        <g
           class="stroked-text"
           id="g640">
          <desc
             id="desc632">GND</desc>
          <path
             d="m 57619,48249 -48,-23 h -71 l -72,23 -48,48 -23,48 -24,95 v 71 l 24,96 23,47 48,48 72,24 h 47 l 72,-24 23,-24 v -167 h -95"
             id="path634" />
          <path
             d="m 57857,48726 v -500 l 285,500 v -500"
             id="path636" />
          <path
             d="m 58380,48726 v -500 h 120 l 71,23 48,48 23,48 24,95 v 71 l -24,96 -23,47 -48,48 -71,24 h -120"
             id="path638" />
        </g>
      </g>
    </g>
    <g
       style="fill:#006464;fill-opacity:0;stroke:#006464;stroke-width:60;stroke-linecap:round;stroke-linejoin:round;stroke-opacity:1"
       id="g666">
      <g
         id="g646" />
      <g
         style="fill:#840000;fill-opacity:0;stroke:#840000;stroke-width:60;stroke-linecap:round;stroke-linejoin:round;stroke-opacity:1"
         id="g650">
        <path
           style="fill:none;fill-opacity:0;stroke:#840000;stroke-width:60;stroke-linecap:round;stroke-linejoin:round;stroke-opacity:1"
           d="m 66000,42000 v 500 h 500 l -500,500 -500,-500 h 500"
           id="path648" />
      </g>
      <g
         style="fill:#006464;fill-opacity:0;stroke:#006464;stroke-width:60;stroke-linecap:round;stroke-linejoin:round;stroke-opacity:1"
         id="g664">
        <text
           x="66000"
           y="44249.961"
           textLength="1583.8188"
           font-size="666.654px"
           lengthAdjust="spacingAndGlyphs"
           text-anchor="middle"
           opacity="0"
           id="text652">GND</text>
        <g
           class="stroked-text"
           id="g662">
          <desc
             id="desc654">GND</desc>
          <path
             d="m 65619,43749 -48,-23 h -71 l -72,23 -48,48 -23,48 -24,95 v 71 l 24,96 23,47 48,48 72,24 h 47 l 72,-24 23,-24 v -167 h -95"
             id="path656" />
          <path
             d="m 65857,44226 v -500 l 285,500 v -500"
             id="path658" />
          <path
             d="m 66380,44226 v -500 h 120 l 71,23 48,48 23,48 24,95 v 71 l -24,96 -23,47 -48,48 -71,24 h -120"
             id="path660" />
        </g>
      </g>
    </g>
    <g
       style="fill:#009600;fill-opacity:0;stroke:#009600;stroke-width:60;stroke-linecap:round;stroke-linejoin:round;stroke-opacity:1"
       id="g686">
      <path
         d="m 64000,35500 h 2000"
         id="path670" />
      <path
         d="m 64000,36500 h 2000"
         id="path672" />
      <path
         d="m 58000,30500 v 2000"
         id="path674" />
      <path
         d="m 73500,35500 h 1500"
         id="path676" />
      <path
         d="m 69000,35500 h 1500"
         id="path678" />
      <path
         d="m 75000,35500 v 1500"
         id="path680" />
      <path
         d="m 66000,40500 v 1500"
         id="path682" />
      <path
         d="m 58000,44500 v 2000"
         id="path684" />
    </g>
    <g
       style="fill:#000084;fill-opacity:0;stroke:#000084;stroke-width:60;stroke-linecap:round;stroke-linejoin:round;stroke-opacity:1"
       id="g704">
      <path
         d="m 63760,37260 480,480"
         id="path688" />
      <path
         d="m 64240,37260 -480,480"
         id="path690" />
      <path
         d="m 63760,38260 480,480"
         id="path692" />
      <path
         d="m 64240,38260 -480,480"
         id="path694" />
      <path
         d="m 63760,39260 480,480"
         id="path696" />
      <path
         d="m 64240,39260 -480,480"
         id="path698" />
      <path
         d="m 63760,40260 480,480"
         id="path700" />
      <path
         d="m 64240,40260 -480,480"
         id="path702" />
    </g>
  </g>
  <metadata
     id="metadata1340">
    <rdf:RDF>
      <cc:Work
         rdf:about="">
        <dc:title>SVG Picture created as gpio.svg date 2022/08/31 19:48:30 </dc:title>
      </cc:Work>
    </rdf:RDF>
  </metadata>
</svg>
