<?xml version="1.0" encoding="UTF-8" standalone="no"?>
<svg
   version="1.1"
   viewBox="0 0 30833.396 21801.981"
   id="svg632"
   sodipodi:docname="pwm-phase-correct.svg"
   inkscape:version="1.2 (dc2aedaf03, 2022-05-15)"
   xmlns:inkscape="http://www.inkscape.org/namespaces/inkscape"
   xmlns:sodipodi="http://sodipodi.sourceforge.net/DTD/sodipodi-0.dtd"
   xmlns="http://www.w3.org/2000/svg"
   xmlns:svg="http://www.w3.org/2000/svg"
   xmlns:rdf="http://www.w3.org/1999/02/22-rdf-syntax-ns#"
   xmlns:cc="http://creativecommons.org/ns#"
   xmlns:dc="http://purl.org/dc/elements/1.1/">
  <defs
     id="defs636" />
  <sodipodi:namedview
     id="namedview634"
     pagecolor="#ffffff"
     bordercolor="#666666"
     borderopacity="1.0"
     inkscape:showpageshadow="2"
     inkscape:pageopacity="0.0"
     inkscape:pagecheckerboard="0"
     inkscape:deskcolor="#d1d1d1"
     inkscape:document-units="cm"
     showgrid="false"
     inkscape:zoom="0.015295516"
     inkscape:cx="16867.689"
     inkscape:cy="7224.3395"
     inkscape:current-layer="svg632" />
  <title
     id="title2">SVG Picture created as pwm-phase-correct.svg date 2022/08/31 13:13:54 </title>
  <desc
     id="desc4">Picture generated by Eeschema-SVG </desc>
  <g
     style="fill:#000000;fill-opacity:1;stroke:#000000;stroke-linecap:round;stroke-linejoin:round;stroke-opacity:1"
     id="g6"
     transform="translate(-45224.411,-29061.261)" />
  <g
     style="fill:#f5f4ef;fill-opacity:0;stroke:#f5f4ef;stroke-width:0;stroke-linecap:round;stroke-linejoin:round;stroke-opacity:1"
     id="g8"
     transform="translate(-45224.411,-29061.261)" />
  <g
     style="fill:#f5f4ef;fill-opacity:1;stroke:#f5f4ef;stroke-width:0.03937;stroke-linecap:round;stroke-linejoin:round;stroke-opacity:1"
     id="g12"
     transform="matrix(0.26369097,0,0,0.26369097,0.00519076,0.00519076)">
    <rect
       x="0"
       y="0"
       width="116930"
       height="82680"
       rx="0.000000"
       id="rect10" />
  </g>
  <g
     style="fill:#006464;fill-opacity:0;stroke:#006464;stroke-width:60;stroke-linecap:round;stroke-linejoin:round;stroke-opacity:1"
     id="g594"
     transform="translate(-45224.411,-29061.261)" />
  <g
     id="g1782"
     transform="translate(-43836.083,-28091.71)">
    <g
       style="fill:#f5f4ef;fill-opacity:1;stroke:#f5f4ef;stroke-width:60;stroke-linecap:round;stroke-linejoin:round;stroke-opacity:1"
       id="g42">
      <g
         id="g14" />
      <g
         style="fill:#840000;fill-opacity:1;stroke:#840000;stroke-width:60;stroke-linecap:round;stroke-linejoin:round;stroke-opacity:1"
         id="g16" />
      <g
         style="fill:#840000;fill-opacity:0;stroke:#840000;stroke-width:60;stroke-linecap:round;stroke-linejoin:round;stroke-opacity:1"
         id="g24">
        <path
           style="fill:none;fill-opacity:0;stroke:#840000;stroke-width:60;stroke-linecap:round;stroke-linejoin:round;stroke-opacity:1"
           d="m 55700,31000 300,-500"
           id="path18" />
        <path
           style="fill:none;fill-opacity:0;stroke:#840000;stroke-width:60;stroke-linecap:round;stroke-linejoin:round;stroke-opacity:1"
           d="M 56000,31500 V 30500"
           id="path20" />
        <path
           style="fill:none;fill-opacity:0;stroke:#840000;stroke-width:60;stroke-linecap:round;stroke-linejoin:round;stroke-opacity:1"
           d="m 56000,30500 300,500"
           id="path22" />
      </g>
      <g
         style="fill:#006464;fill-opacity:0;stroke:#006464;stroke-width:60;stroke-linecap:round;stroke-linejoin:round;stroke-opacity:1"
         id="g40">
        <text
           x="56000"
           y="29749.961"
           textLength="1653.8188"
           font-size="666.654px"
           lengthAdjust="spacingAndGlyphs"
           text-anchor="middle"
           opacity="0"
           id="text26">+5V</text>
        <g
           class="stroked-text"
           id="g38">
          <desc
             id="desc28">+5V</desc>
          <path
             d="m 55357,29535 h 381"
             id="path30" />
          <path
             d="m 55547,29726 v -381"
             id="path32" />
          <path
             d="m 56214,29226 h -238 l -24,238 24,-24 47,-24 h 119 l 48,24 24,24 24,47 v 119 l -24,48 -24,24 -48,24 h -119 l -47,-24 -24,-24"
             id="path34" />
          <path
             d="m 56380,29226 167,500 167,-500"
             id="path36" />
        </g>
      </g>
    </g>
    <g
       style="fill:#006464;fill-opacity:0;stroke:#006464;stroke-width:60;stroke-linecap:round;stroke-linejoin:round;stroke-opacity:1"
       id="g64">
      <g
         id="g44" />
      <g
         style="fill:#840000;fill-opacity:0;stroke:#840000;stroke-width:60;stroke-linecap:round;stroke-linejoin:round;stroke-opacity:1"
         id="g48">
        <path
           style="fill:none;fill-opacity:0;stroke:#840000;stroke-width:60;stroke-linecap:round;stroke-linejoin:round;stroke-opacity:1"
           d="m 72500,37500 v 500 h 500 l -500,500 -500,-500 h 500"
           id="path46" />
      </g>
      <g
         style="fill:#006464;fill-opacity:0;stroke:#006464;stroke-width:60;stroke-linecap:round;stroke-linejoin:round;stroke-opacity:1"
         id="g62">
        <text
           x="72500"
           y="39749.961"
           textLength="1583.8188"
           font-size="666.654px"
           lengthAdjust="spacingAndGlyphs"
           text-anchor="middle"
           opacity="0"
           id="text50">GND</text>
        <g
           class="stroked-text"
           id="g60">
          <desc
             id="desc52">GND</desc>
          <path
             d="m 72119,39249 -48,-23 h -71 l -72,23 -48,48 -23,48 -24,95 v 71 l 24,96 23,47 48,48 72,24 h 47 l 72,-24 23,-24 v -167 h -95"
             id="path54" />
          <path
             d="m 72357,39726 v -500 l 285,500 v -500"
             id="path56" />
          <path
             d="m 72880,39726 v -500 h 120 l 71,23 48,48 23,48 24,95 v 71 l -24,96 -23,47 -48,48 -71,24 h -120"
             id="path58" />
        </g>
      </g>
    </g>
    <g
       style="fill:#006464;fill-opacity:0;stroke:#006464;stroke-width:60;stroke-linecap:round;stroke-linejoin:round;stroke-opacity:1"
       id="g120">
      <g
         id="g66" />
      <g
         style="fill:#840000;fill-opacity:0;stroke:#840000;stroke-width:60;stroke-linecap:round;stroke-linejoin:round;stroke-opacity:1"
         id="g68" />
      <g
         style="fill:#840000;fill-opacity:0;stroke:#840000;stroke-width:100;stroke-linecap:round;stroke-linejoin:round;stroke-opacity:1"
         id="g72">
        <path
           style="fill:none;fill-opacity:0;stroke:#840000;stroke-width:100;stroke-linecap:round;stroke-linejoin:round;stroke-opacity:1"
           d="m 70000,35500 v 1000"
           id="path70" />
      </g>
      <g
         style="fill:#840000;fill-opacity:0;stroke:#840000;stroke-width:60;stroke-linecap:round;stroke-linejoin:round;stroke-opacity:1"
         id="g76">
        <path
           style="fill:none;fill-opacity:0;stroke:#840000;stroke-width:60;stroke-linecap:round;stroke-linejoin:round;stroke-opacity:1"
           d="M 70000,36000 H 69000"
           id="path74" />
      </g>
      <g
         style="fill:#840000;fill-opacity:0;stroke:#840000;stroke-width:100;stroke-linecap:round;stroke-linejoin:round;stroke-opacity:1"
         id="g80">
        <path
           style="fill:none;fill-opacity:0;stroke:#840000;stroke-width:100;stroke-linecap:round;stroke-linejoin:round;stroke-opacity:1"
           d="m 69000,35500 v 1000 l 1000,-500 z"
           id="path78" />
      </g>
      <g
         style="fill:#840000;fill-opacity:0;stroke:#840000;stroke-width:60;stroke-linecap:round;stroke-linejoin:round;stroke-opacity:1"
         id="g90">
        <path
           style="fill:none;fill-opacity:0;stroke:#840000;stroke-width:60;stroke-linecap:round;stroke-linejoin:round;stroke-opacity:1"
           d="m 70700,35700 600,-600 h -300 300 v 300"
           id="path82" />
        <path
           style="fill:none;fill-opacity:0;stroke:#840000;stroke-width:60;stroke-linecap:round;stroke-linejoin:round;stroke-opacity:1"
           d="m 70200,35700 600,-600 h -300 300 v 300"
           id="path84" />
        <path
           d="m 70000,36000 h 1000"
           id="path86" />
        <path
           d="M 69000,36000 H 68000"
           id="path88" />
      </g>
      <g
         style="fill:#006464;fill-opacity:0;stroke:#006464;stroke-width:60;stroke-linecap:round;stroke-linejoin:round;stroke-opacity:1"
         id="g118">
        <text
           x="70124.961"
           y="33250"
           textLength="1036.1812"
           font-size="666.654px"
           lengthAdjust="spacingAndGlyphs"
           text-anchor="middle"
           opacity="0"
           id="text92">D1</text>
        <g
           class="stroked-text"
           id="g102">
          <desc
             id="desc94">D1</desc>
          <path
             d="m 69755,33226 v -500 h 119 l 72,24 47,47 24,48 24,95 v 71 l -24,96 -24,47 -47,48 -72,24 h -119"
             id="path96" />
          <path
             d="m 70517,33226 h -285"
             id="path98" />
          <path
             d="m 70374,33226 v -500 l -47,71 -48,48 -47,24"
             id="path100" />
        </g>
        <text
           x="70124.961"
           y="34250"
           textLength="1417.126"
           font-size="666.654px"
           lengthAdjust="spacingAndGlyphs"
           text-anchor="middle"
           opacity="0"
           id="text104">LED</text>
        <g
           class="stroked-text"
           id="g116">
          <desc
             id="desc106">LED</desc>
          <path
             d="m 69803,34226 h -238 v -500"
             id="path108" />
          <path
             d="m 69970,33964 h 166"
             id="path110" />
          <path
             d="m 70208,34226 h -238 v -500 h 238"
             id="path112" />
          <path
             d="m 70422,34226 v -500 h 119 l 72,24 47,47 24,48 24,95 v 71 l -24,96 -24,47 -47,48 -72,24 h -119"
             id="path114" />
        </g>
      </g>
    </g>
    <g
       style="fill:#006464;fill-opacity:0;stroke:#006464;stroke-width:60;stroke-linecap:round;stroke-linejoin:round;stroke-opacity:1"
       id="g168">
      <g
         id="g122" />
      <g
         style="fill:#840000;fill-opacity:0;stroke:#840000;stroke-width:60;stroke-linecap:round;stroke-linejoin:round;stroke-opacity:1"
         id="g124" />
      <g
         style="fill:#840000;fill-opacity:0;stroke:#840000;stroke-width:100;stroke-linecap:round;stroke-linejoin:round;stroke-opacity:1"
         id="g128">
        <rect
           x="64000"
           y="35600"
           width="2000"
           height="800"
           rx="0.000000"
           id="rect126" />
      </g>
      <g
         style="fill:#840000;fill-opacity:0;stroke:#840000;stroke-width:60;stroke-linecap:round;stroke-linejoin:round;stroke-opacity:1"
         id="g134">
        <path
           d="m 64000,36000 h -500"
           id="path130" />
        <path
           d="m 66000,36000 h 500"
           id="path132" />
      </g>
      <g
         style="fill:#006464;fill-opacity:0;stroke:#006464;stroke-width:60;stroke-linecap:round;stroke-linejoin:round;stroke-opacity:1"
         id="g166">
        <text
           x="64999.961"
           y="33750"
           textLength="1036.1812"
           font-size="666.654px"
           lengthAdjust="spacingAndGlyphs"
           text-anchor="middle"
           opacity="0"
           id="text136">R1</text>
        <g
           class="stroked-text"
           id="g148">
          <desc
             id="desc138">R1</desc>
          <path
             d="m 64916,33726 -167,-238"
             id="path140" />
          <path
             d="m 64630,33726 v -500 h 191 l 47,24 24,23 24,48 v 71 l -24,48 -24,24 -47,24 h -191"
             id="path142" />
          <path
             d="m 65392,33726 h -285"
             id="path144" />
          <path
             d="m 65249,33726 v -500 l -47,71 -48,48 -47,24"
             id="path146" />
        </g>
        <text
           x="64999.961"
           y="34750"
           textLength="1036.1812"
           font-size="666.654px"
           lengthAdjust="spacingAndGlyphs"
           text-anchor="middle"
           opacity="0"
           id="text150">1K</text>
        <g
           class="stroked-text"
           id="g164">
          <desc
             id="desc152">1K</desc>
          <path
             d="m 64892,34726 h -285"
             id="path154" />
          <path
             d="m 64749,34726 v -500 l -47,71 -48,48 -47,24"
             id="path156" />
          <path
             d="m 65107,34726 v -500"
             id="path158" />
          <path
             d="m 65392,34726 -214,-286"
             id="path160" />
          <path
             d="m 65392,34226 -285,285"
             id="path162" />
        </g>
      </g>
    </g>
    <g
       style="fill:#006464;fill-opacity:0;stroke:#006464;stroke-width:60;stroke-linecap:round;stroke-linejoin:round;stroke-opacity:1"
       id="g570">
      <g
         id="g170" />
      <g
         style="fill:#840000;fill-opacity:0;stroke:#840000;stroke-width:60;stroke-linecap:round;stroke-linejoin:round;stroke-opacity:1"
         id="g172" />
      <g
         style="fill:#ffffc2;fill-opacity:0;stroke:#ffffc2;stroke-width:60;stroke-linecap:round;stroke-linejoin:round;stroke-opacity:1"
         id="g174" />
      <g
         style="fill:#ffffc2;fill-opacity:0.6;stroke:#ffffc2;stroke-width:0.03937;stroke-linecap:round;stroke-linejoin:round;stroke-opacity:1"
         id="g178">
        <rect
           x="51000"
           y="34000"
           width="10000"
           height="10000"
           rx="0.000000"
           id="rect176" />
      </g>
      <g
         style="fill:#840000;fill-opacity:0.6;stroke:#840000;stroke-width:0.03937;stroke-linecap:round;stroke-linejoin:round;stroke-opacity:1"
         id="g180" />
      <g
         style="fill:#840000;fill-opacity:0;stroke:#840000;stroke-width:100;stroke-linecap:round;stroke-linejoin:round;stroke-opacity:1"
         id="g186">
        <rect
           x="51000"
           y="34000"
           width="10000"
           height="10000"
           rx="0.000000"
           id="rect182" />
        <rect
           x="51000"
           y="34000"
           width="10000"
           height="10000"
           rx="0.000000"
           id="rect184" />
      </g>
      <g
         style="fill:#840000;fill-opacity:0;stroke:#840000;stroke-width:60;stroke-linecap:round;stroke-linejoin:round;stroke-opacity:1"
         id="g190">
        <path
           d="m 61000,41000 h 1000"
           id="path188" />
      </g>
      <g
         style="fill:#006464;fill-opacity:0;stroke:#006464;stroke-width:60;stroke-linecap:round;stroke-linejoin:round;stroke-opacity:1"
         id="g234">
        <text
           x="60800"
           y="41250"
           textLength="4321.8896"
           font-size="666.654px"
           lengthAdjust="spacingAndGlyphs"
           text-anchor="end"
           opacity="0"
           id="text192">~{RESET}/PB5</text>
        <g
           class="stroked-text"
           id="g232">
          <desc
             id="desc194">~{RESET}/PB5</desc>
          <path
             d="m 56508,40585 h 500"
             id="path196" />
          <path
             d="m 56912,41226 -166,-238"
             id="path198" />
          <path
             d="m 56627,41226 v -500 h 190 l 48,24 24,23 23,48 v 71 l -23,48 -24,24 -48,24 h -190"
             id="path200" />
          <path
             d="m 57008,40585 h 452"
             id="path202" />
          <path
             d="m 57127,40964 h 166"
             id="path204" />
          <path
             d="m 57365,41226 h -238 v -500 h 238"
             id="path206" />
          <path
             d="m 57460,40585 h 476"
             id="path208" />
          <path
             d="m 57555,41202 72,24 h 119 l 47,-24 24,-24 24,-48 v -47 l -24,-48 -24,-24 -47,-23 -96,-24 -47,-24 -24,-24 -24,-47 v -48 l 24,-48 24,-23 47,-24 h 120 l 71,24"
             id="path210" />
          <path
             d="m 57936,40585 h 453"
             id="path212" />
          <path
             d="m 58055,40964 h 167"
             id="path214" />
          <path
             d="m 58293,41226 h -238 v -500 h 238"
             id="path216" />
          <path
             d="m 58389,40585 h 381"
             id="path218" />
          <path
             d="m 58436,40726 h 286"
             id="path220" />
          <path
             d="m 58579,41226 v -500"
             id="path222" />
          <path
             d="m 59246,40702 -429,643"
             id="path224" />
          <path
             d="m 59412,41226 v -500 h 191 l 47,24 24,23 24,48 v 71 l -24,48 -24,24 -47,24 h -191"
             id="path226" />
          <path
             d="m 60079,40964 71,24 24,23 24,48 v 71 l -24,48 -24,24 -47,24 h -191 v -500 h 167 l 48,24 23,23 24,48 v 48 l -24,47 -23,24 -48,24 h -167"
             id="path228" />
          <path
             d="m 60650,40726 h -238 l -23,238 23,-24 48,-24 h 119 l 48,24 23,24 24,47 v 119 l -24,48 -23,24 -48,24 h -119 l -48,-24 -23,-24"
             id="path230" />
        </g>
      </g>
      <g
         style="fill:#a90000;fill-opacity:0;stroke:#a90000;stroke-width:60;stroke-linecap:round;stroke-linejoin:round;stroke-opacity:1"
         id="g246">
        <text
           x="61500"
           y="40900"
           textLength="536.18109"
           font-size="666.654px"
           lengthAdjust="spacingAndGlyphs"
           text-anchor="middle"
           opacity="0"
           id="text236">1</text>
        <g
           class="stroked-text"
           id="g244">
          <desc
             id="desc238">1</desc>
          <path
             d="m 61642,40876 h -285"
             id="path240" />
          <path
             d="m 61500,40876 v -500 l -48,71 -48,48 -47,24"
             id="path242" />
        </g>
      </g>
      <g
         style="fill:#840000;fill-opacity:0;stroke:#840000;stroke-width:60;stroke-linecap:round;stroke-linejoin:round;stroke-opacity:1"
         id="g250">
        <path
           d="m 61000,39000 h 1000"
           id="path248" />
      </g>
      <g
         style="fill:#006464;fill-opacity:0;stroke:#006464;stroke-width:60;stroke-linecap:round;stroke-linejoin:round;stroke-opacity:1"
         id="g284">
        <text
           x="60800"
           y="39250"
           textLength="4226.6533"
           font-size="666.654px"
           lengthAdjust="spacingAndGlyphs"
           text-anchor="end"
           opacity="0"
           id="text252">XTAL1/PB3</text>
        <g
           class="stroked-text"
           id="g282">
          <desc
             id="desc254">XTAL1/PB3</desc>
          <path
             d="m 56674,38726 334,500"
             id="path256" />
          <path
             d="m 57008,38726 -334,500"
             id="path258" />
          <path
             d="m 57127,38726 h 285"
             id="path260" />
          <path
             d="m 57270,39226 v -500"
             id="path262" />
          <path
             d="m 57555,39083 h 238"
             id="path264" />
          <path
             d="m 57508,39226 166,-500 167,500"
             id="path266" />
          <path
             d="m 58246,39226 h -238 v -500"
             id="path268" />
          <path
             d="m 58674,39226 h -285"
             id="path270" />
          <path
             d="m 58531,39226 v -500 l -47,71 -48,48 -47,24"
             id="path272" />
          <path
             d="m 59246,38702 -429,643"
             id="path274" />
          <path
             d="m 59412,39226 v -500 h 191 l 47,24 24,23 24,48 v 71 l -24,48 -24,24 -47,24 h -191"
             id="path276" />
          <path
             d="m 60079,38964 71,24 24,23 24,48 v 71 l -24,48 -24,24 -47,24 h -191 v -500 h 167 l 48,24 23,23 24,48 v 48 l -24,47 -23,24 -48,24 h -167"
             id="path278" />
          <path
             d="m 60365,38726 h 309 l -166,190 h 71 l 48,24 23,24 24,47 v 119 l -24,48 -23,24 -48,24 h -143 l -47,-24 -24,-24"
             id="path280" />
        </g>
      </g>
      <g
         style="fill:#a90000;fill-opacity:0;stroke:#a90000;stroke-width:60;stroke-linecap:round;stroke-linejoin:round;stroke-opacity:1"
         id="g294">
        <text
           x="61500"
           y="38900"
           textLength="536.18109"
           font-size="666.654px"
           lengthAdjust="spacingAndGlyphs"
           text-anchor="middle"
           opacity="0"
           id="text286">2</text>
        <g
           class="stroked-text"
           id="g292">
          <desc
             id="desc288">2</desc>
          <path
             d="m 61357,38423 23,-23 48,-24 h 119 l 48,24 24,23 23,48 v 48 l -23,71 -286,286 h 309"
             id="path290" />
        </g>
      </g>
      <g
         style="fill:#840000;fill-opacity:0;stroke:#840000;stroke-width:60;stroke-linecap:round;stroke-linejoin:round;stroke-opacity:1"
         id="g298">
        <path
           d="m 61000,40000 h 1000"
           id="path296" />
      </g>
      <g
         style="fill:#006464;fill-opacity:0;stroke:#006464;stroke-width:60;stroke-linecap:round;stroke-linejoin:round;stroke-opacity:1"
         id="g332">
        <text
           x="60800"
           y="40250"
           textLength="4226.6533"
           font-size="666.654px"
           lengthAdjust="spacingAndGlyphs"
           text-anchor="end"
           opacity="0"
           id="text300">XTAL2/PB4</text>
        <g
           class="stroked-text"
           id="g330">
          <desc
             id="desc302">XTAL2/PB4</desc>
          <path
             d="m 56674,39726 334,500"
             id="path304" />
          <path
             d="m 57008,39726 -334,500"
             id="path306" />
          <path
             d="m 57127,39726 h 285"
             id="path308" />
          <path
             d="m 57270,40226 v -500"
             id="path310" />
          <path
             d="m 57555,40083 h 238"
             id="path312" />
          <path
             d="m 57508,40226 166,-500 167,500"
             id="path314" />
          <path
             d="m 58246,40226 h -238 v -500"
             id="path316" />
          <path
             d="m 58389,39773 23,-23 48,-24 h 119 l 48,24 23,23 24,48 v 48 l -24,71 -285,286 h 309"
             id="path318" />
          <path
             d="m 59246,39702 -429,643"
             id="path320" />
          <path
             d="m 59412,40226 v -500 h 191 l 47,24 24,23 24,48 v 71 l -24,48 -24,24 -47,24 h -191"
             id="path322" />
          <path
             d="m 60079,39964 71,24 24,23 24,48 v 71 l -24,48 -24,24 -47,24 h -191 v -500 h 167 l 48,24 23,23 24,48 v 48 l -24,47 -23,24 -48,24 h -167"
             id="path324" />
          <path
             d="m 60627,39892 v 334"
             id="path326" />
          <path
             d="m 60508,39702 -119,357 h 309"
             id="path328" />
        </g>
      </g>
      <g
         style="fill:#a90000;fill-opacity:0;stroke:#a90000;stroke-width:60;stroke-linecap:round;stroke-linejoin:round;stroke-opacity:1"
         id="g342">
        <text
           x="61500"
           y="39900"
           textLength="536.18109"
           font-size="666.654px"
           lengthAdjust="spacingAndGlyphs"
           text-anchor="middle"
           opacity="0"
           id="text334">3</text>
        <g
           class="stroked-text"
           id="g340">
          <desc
             id="desc336">3</desc>
          <path
             d="m 61333,39376 h 309 l -166,190 h 71 l 48,24 24,24 23,47 v 119 l -23,48 -24,24 -48,24 h -143 l -47,-24 -24,-24"
             id="path338" />
        </g>
      </g>
      <g
         style="fill:#840000;fill-opacity:0;stroke:#840000;stroke-width:60;stroke-linecap:round;stroke-linejoin:round;stroke-opacity:1"
         id="g346">
        <path
           d="m 56000,44000 v 1000"
           id="path344" />
      </g>
      <g
         style="fill:#006464;fill-opacity:0;stroke:#006464;stroke-width:60;stroke-linecap:round;stroke-linejoin:round;stroke-opacity:1"
         id="g362">
        <g
           transform="rotate(-90,56000,43800)"
           id="g350">
          <text
             x="56000"
             y="44050"
             textLength="1583.8188"
             font-size="666.654px"
             lengthAdjust="spacingAndGlyphs"
             text-anchor="start"
             opacity="0"
             id="text348">GND</text>
        </g>
        <g
           class="stroked-text"
           id="g360">
          <desc
             id="desc352">GND</desc>
          <path
             d="m 55750,43389 -24,47 v 72 l 24,71 47,48 48,23 95,24 h 71 l 96,-24 47,-23 48,-48 24,-71 v -48 l -24,-71 -24,-24 h -167 v 95"
             id="path354" />
          <path
             d="m 56226,43150 h -500 l 500,-285 h -500"
             id="path356" />
          <path
             d="m 56226,42627 h -500 v -119 l 24,-72 47,-47 48,-24 95,-24 h 71 l 96,24 47,24 48,47 24,72 v 119"
             id="path358" />
        </g>
      </g>
      <g
         style="fill:#a90000;fill-opacity:0;stroke:#a90000;stroke-width:60;stroke-linecap:round;stroke-linejoin:round;stroke-opacity:1"
         id="g376">
        <g
           transform="rotate(-90,55900,44500)"
           id="g366">
          <text
             x="55900"
             y="44500"
             textLength="536.18109"
             font-size="666.654px"
             lengthAdjust="spacingAndGlyphs"
             text-anchor="middle"
             opacity="0"
             id="text364">4</text>
        </g>
        <g
           class="stroked-text"
           id="g374">
          <desc
             id="desc368">4</desc>
          <path
             d="m 55542,44404 h 334"
             id="path370" />
          <path
             d="m 55352,44523 357,119 v -309"
             id="path372" />
        </g>
      </g>
      <g
         style="fill:#840000;fill-opacity:0;stroke:#840000;stroke-width:60;stroke-linecap:round;stroke-linejoin:round;stroke-opacity:1"
         id="g380">
        <path
           d="m 61000,36000 h 1000"
           id="path378" />
      </g>
      <g
         style="fill:#006464;fill-opacity:0;stroke:#006464;stroke-width:60;stroke-linecap:round;stroke-linejoin:round;stroke-opacity:1"
         id="g412">
        <text
           x="60800"
           y="36250"
           textLength="3869.5276"
           font-size="666.654px"
           lengthAdjust="spacingAndGlyphs"
           text-anchor="end"
           opacity="0"
           id="text382">AREF/PB0</text>
        <g
           class="stroked-text"
           id="g410">
          <desc
             id="desc384">AREF/PB0</desc>
          <path
             d="m 57055,36083 h 238"
             id="path386" />
          <path
             d="m 57008,36226 166,-500 167,500"
             id="path388" />
          <path
             d="m 57793,36226 -166,-238"
             id="path390" />
          <path
             d="m 57508,36226 v -500 h 190 l 48,24 24,23 23,48 v 71 l -23,48 -24,24 -48,24 h -190"
             id="path392" />
          <path
             d="m 58008,35964 h 166"
             id="path394" />
          <path
             d="m 58246,36226 h -238 v -500 h 238"
             id="path396" />
          <path
             d="m 58627,35964 h -167"
             id="path398" />
          <path
             d="m 58460,36226 v -500 h 238"
             id="path400" />
          <path
             d="m 59246,35702 -429,643"
             id="path402" />
          <path
             d="m 59412,36226 v -500 h 191 l 47,24 24,23 24,48 v 71 l -24,48 -24,24 -47,24 h -191"
             id="path404" />
          <path
             d="m 60079,35964 71,24 24,23 24,48 v 71 l -24,48 -24,24 -47,24 h -191 v -500 h 167 l 48,24 23,23 24,48 v 48 l -24,47 -23,24 -48,24 h -167"
             id="path406" />
          <path
             d="m 60508,35726 h 47 l 48,24 24,23 23,48 24,95 v 119 l -24,95 -23,48 -24,24 -48,24 h -47 l -48,-24 -24,-24 -24,-48 -23,-95 v -119 l 23,-95 24,-48 24,-23 48,-24"
             id="path408" />
        </g>
      </g>
      <g
         style="fill:#a90000;fill-opacity:0;stroke:#a90000;stroke-width:60;stroke-linecap:round;stroke-linejoin:round;stroke-opacity:1"
         id="g422">
        <text
           x="61500"
           y="35900"
           textLength="536.18109"
           font-size="666.654px"
           lengthAdjust="spacingAndGlyphs"
           text-anchor="middle"
           opacity="0"
           id="text414">5</text>
        <g
           class="stroked-text"
           id="g420">
          <desc
             id="desc416">5</desc>
          <path
             d="m 61619,35376 h -239 l -23,238 23,-24 48,-24 h 119 l 48,24 24,24 23,47 v 119 l -23,48 -24,24 -48,24 h -119 l -48,-24 -23,-24"
             id="path418" />
        </g>
      </g>
      <g
         style="fill:#840000;fill-opacity:0;stroke:#840000;stroke-width:60;stroke-linecap:round;stroke-linejoin:round;stroke-opacity:1"
         id="g426">
        <path
           d="m 61000,37000 h 1000"
           id="path424" />
      </g>
      <g
         style="fill:#006464;fill-opacity:0;stroke:#006464;stroke-width:60;stroke-linecap:round;stroke-linejoin:round;stroke-opacity:1"
         id="g442">
        <text
           x="60800"
           y="37250"
           textLength="1536.1812"
           font-size="666.654px"
           lengthAdjust="spacingAndGlyphs"
           text-anchor="end"
           opacity="0"
           id="text428">PB1</text>
        <g
           class="stroked-text"
           id="g440">
          <desc
             id="desc430">PB1</desc>
          <path
             d="m 59412,37226 v -500 h 191 l 47,24 24,23 24,48 v 71 l -24,48 -24,24 -47,24 h -191"
             id="path432" />
          <path
             d="m 60079,36964 71,24 24,23 24,48 v 71 l -24,48 -24,24 -47,24 h -191 v -500 h 167 l 48,24 23,23 24,48 v 48 l -24,47 -23,24 -48,24 h -167"
             id="path434" />
          <path
             d="m 60674,37226 h -285"
             id="path436" />
          <path
             d="m 60531,37226 v -500 l -47,71 -48,48 -47,24"
             id="path438" />
        </g>
      </g>
      <g
         style="fill:#a90000;fill-opacity:0;stroke:#a90000;stroke-width:60;stroke-linecap:round;stroke-linejoin:round;stroke-opacity:1"
         id="g452">
        <text
           x="61500"
           y="36900"
           textLength="536.18109"
           font-size="666.654px"
           lengthAdjust="spacingAndGlyphs"
           text-anchor="middle"
           opacity="0"
           id="text444">6</text>
        <g
           class="stroked-text"
           id="g450">
          <desc
             id="desc446">6</desc>
          <path
             d="m 61595,36376 h -95 l -48,24 -24,23 -48,72 -23,95 v 190 l 23,48 24,24 48,24 h 95 l 48,-24 24,-24 23,-48 v -119 l -23,-47 -24,-24 -48,-24 h -95 l -48,24 -24,24 -23,47"
             id="path448" />
        </g>
      </g>
      <g
         style="fill:#840000;fill-opacity:0;stroke:#840000;stroke-width:60;stroke-linecap:round;stroke-linejoin:round;stroke-opacity:1"
         id="g456">
        <path
           d="m 61000,38000 h 1000"
           id="path454" />
      </g>
      <g
         style="fill:#006464;fill-opacity:0;stroke:#006464;stroke-width:60;stroke-linecap:round;stroke-linejoin:round;stroke-opacity:1"
         id="g470">
        <text
           x="60800"
           y="38250"
           textLength="1536.1812"
           font-size="666.654px"
           lengthAdjust="spacingAndGlyphs"
           text-anchor="end"
           opacity="0"
           id="text458">PB2</text>
        <g
           class="stroked-text"
           id="g468">
          <desc
             id="desc460">PB2</desc>
          <path
             d="m 59412,38226 v -500 h 191 l 47,24 24,23 24,48 v 71 l -24,48 -24,24 -47,24 h -191"
             id="path462" />
          <path
             d="m 60079,37964 71,24 24,23 24,48 v 71 l -24,48 -24,24 -47,24 h -191 v -500 h 167 l 48,24 23,23 24,48 v 48 l -24,47 -23,24 -48,24 h -167"
             id="path464" />
          <path
             d="m 60389,37773 23,-23 48,-24 h 119 l 48,24 23,23 24,48 v 48 l -24,71 -285,286 h 309"
             id="path466" />
        </g>
      </g>
      <g
         style="fill:#a90000;fill-opacity:0;stroke:#a90000;stroke-width:60;stroke-linecap:round;stroke-linejoin:round;stroke-opacity:1"
         id="g480">
        <text
           x="61500"
           y="37900"
           textLength="536.18109"
           font-size="666.654px"
           lengthAdjust="spacingAndGlyphs"
           text-anchor="middle"
           opacity="0"
           id="text472">7</text>
        <g
           class="stroked-text"
           id="g478">
          <desc
             id="desc474">7</desc>
          <path
             d="m 61333,37376 h 333 l -214,500"
             id="path476" />
        </g>
      </g>
      <g
         style="fill:#840000;fill-opacity:0;stroke:#840000;stroke-width:60;stroke-linecap:round;stroke-linejoin:round;stroke-opacity:1"
         id="g484">
        <path
           d="M 56000,34000 V 33000"
           id="path482" />
      </g>
      <g
         style="fill:#006464;fill-opacity:0;stroke:#006464;stroke-width:60;stroke-linecap:round;stroke-linejoin:round;stroke-opacity:1"
         id="g500">
        <g
           transform="rotate(-90,56000,34200)"
           id="g488">
          <text
             x="56000"
             y="34450"
             textLength="1488.5826"
             font-size="666.654px"
             lengthAdjust="spacingAndGlyphs"
             text-anchor="end"
             opacity="0"
             id="text486">VCC</text>
        </g>
        <g
           class="stroked-text"
           id="g498">
          <desc
             id="desc490">VCC</desc>
          <path
             d="m 55726,35610 500,-166 -500,-167"
             id="path492" />
          <path
             d="m 56178,34825 24,24 24,71 v 48 l -24,71 -48,48 -47,23 -96,24 h -71 l -95,-24 -48,-23 -47,-48 -24,-71 v -48 l 24,-71 23,-24"
             id="path494" />
          <path
             d="m 56178,34325 24,24 24,71 v 48 l -24,71 -48,48 -47,23 -96,24 h -71 l -95,-24 -48,-23 -47,-48 -24,-71 v -48 l 24,-71 23,-24"
             id="path496" />
        </g>
      </g>
      <g
         style="fill:#a90000;fill-opacity:0;stroke:#a90000;stroke-width:60;stroke-linecap:round;stroke-linejoin:round;stroke-opacity:1"
         id="g512">
        <g
           transform="rotate(-90,55900,33500)"
           id="g504">
          <text
             x="55900"
             y="33500"
             textLength="536.18109"
             font-size="666.654px"
             lengthAdjust="spacingAndGlyphs"
             text-anchor="middle"
             opacity="0"
             id="text502">8</text>
        </g>
        <g
           class="stroked-text"
           id="g510">
          <desc
             id="desc506">8</desc>
          <path
             d="m 55590,33547 -24,48 -24,24 -47,23 h -24 l -48,-23 -23,-24 -24,-48 v -95 l 24,-48 23,-24 48,-23 h 24 l 47,23 24,24 24,48 v 95 l 24,48 24,24 47,23 h 95 l 48,-23 24,-24 24,-48 v -95 l -24,-48 -24,-24 -48,-23 h -95 l -47,23 -24,24 -24,48"
             id="path508" />
        </g>
      </g>
      <g
         style="fill:#006464;fill-opacity:0;stroke:#006464;stroke-width:60;stroke-linecap:round;stroke-linejoin:round;stroke-opacity:1"
         id="g568">
        <text
           x="49968.738"
           y="38749.922"
           textLength="1060"
           font-size="666.654px"
           lengthAdjust="spacingAndGlyphs"
           text-anchor="middle"
           opacity="0"
           id="text514">U1</text>
        <g
           class="stroked-text"
           id="g524">
          <desc
             id="desc516">U1</desc>
          <path
             d="m 49587,38226 v 404 l 24,48 24,24 47,24 h 96 l 47,-24 24,-24 24,-48 v -404"
             id="path518" />
          <path
             d="m 50373,38726 h -286"
             id="path520" />
          <path
             d="m 50230,38726 v -500 l -48,71 -47,48 -48,23"
             id="path522" />
        </g>
        <text
           x="47873.504"
           y="39749.922"
           textLength="5250.4727"
           font-size="666.654px"
           lengthAdjust="spacingAndGlyphs"
           text-anchor="middle"
           opacity="0"
           id="text526">ATtiny85-20P</text>
        <g
           class="stroked-text"
           id="g566">
          <desc
             id="desc528">ATtiny85-20P</desc>
          <path
             d="m 45373,39583 h 238"
             id="path530" />
          <path
             d="m 45325,39726 167,-500 167,500"
             id="path532" />
          <path
             d="m 45754,39226 h 286"
             id="path534" />
          <path
             d="m 45897,39726 v -500"
             id="path536" />
          <path
             d="m 46135,39392 h 190"
             id="path538" />
          <path
             d="m 46206,39226 v 428 l 24,48 48,24 h 47"
             id="path540" />
          <path
             d="m 46492,39726 v -334"
             id="path542" />
          <path
             d="m 46492,39226 -24,23 24,24 24,-24 -24,-23 v 47"
             id="path544" />
          <path
             d="m 46730,39392 v 334"
             id="path546" />
          <path
             d="m 46730,39440 24,-24 48,-24 h 71 l 48,24 23,48 v 262"
             id="path548" />
          <path
             d="m 47135,39392 119,334"
             id="path550" />
          <path
             d="m 47373,39392 -119,334 -48,119 -24,23 -47,24"
             id="path552" />
          <path
             d="m 47635,39440 -48,-24 -24,-24 -23,-47 v -24 l 23,-48 24,-24 48,-23 h 95 l 48,23 24,24 23,48 v 24 l -23,47 -24,24 -48,24 h -95 l -48,24 -24,23 -23,48 v 95 l 23,48 24,24 48,24 h 95 l 48,-24 24,-24 23,-48 v -95 l -23,-48 -24,-23 -48,-24"
             id="path554" />
          <path
             d="m 48278,39226 h -238 l -24,238 24,-24 47,-24 h 119 l 48,24 24,24 24,47 v 119 l -24,48 -24,24 -48,24 h -119 l -47,-24 -24,-24"
             id="path556" />
          <path
             d="m 48516,39535 h 381"
             id="path558" />
          <path
             d="m 49111,39273 24,-24 47,-23 h 120 l 47,23 24,24 24,48 v 47 l -24,72 -286,286 h 310"
             id="path560" />
          <path
             d="m 49706,39226 h 48 l 48,23 23,24 24,48 24,95 v 119 l -24,95 -24,48 -23,24 -48,24 h -48 l -47,-24 -24,-24 -24,-48 -24,-95 v -119 l 24,-95 24,-48 24,-24 47,-23"
             id="path562" />
          <path
             d="m 50087,39726 v -500 h 191 l 47,23 24,24 24,48 v 71 l -24,48 -24,24 -47,23 h -191"
             id="path564" />
        </g>
      </g>
    </g>
    <g
       style="fill:#006464;fill-opacity:0;stroke:#006464;stroke-width:60;stroke-linecap:round;stroke-linejoin:round;stroke-opacity:1"
       id="g592">
      <g
         id="g572" />
      <g
         style="fill:#840000;fill-opacity:0;stroke:#840000;stroke-width:60;stroke-linecap:round;stroke-linejoin:round;stroke-opacity:1"
         id="g576">
        <path
           style="fill:none;fill-opacity:0;stroke:#840000;stroke-width:60;stroke-linecap:round;stroke-linejoin:round;stroke-opacity:1"
           d="m 56000,46500 v 500 h 500 l -500,500 -500,-500 h 500"
           id="path574" />
      </g>
      <g
         style="fill:#006464;fill-opacity:0;stroke:#006464;stroke-width:60;stroke-linecap:round;stroke-linejoin:round;stroke-opacity:1"
         id="g590">
        <text
           x="56000"
           y="48749.961"
           textLength="1583.8188"
           font-size="666.654px"
           lengthAdjust="spacingAndGlyphs"
           text-anchor="middle"
           opacity="0"
           id="text578">GND</text>
        <g
           class="stroked-text"
           id="g588">
          <desc
             id="desc580">GND</desc>
          <path
             d="m 55619,48249 -48,-23 h -71 l -72,23 -48,48 -23,48 -24,95 v 71 l 24,96 23,47 48,48 72,24 h 47 l 72,-24 23,-24 v -167 h -95"
             id="path582" />
          <path
             d="m 55857,48726 v -500 l 285,500 v -500"
             id="path584" />
          <path
             d="m 56380,48726 v -500 h 120 l 71,23 48,48 23,48 24,95 v 71 l -24,96 -23,47 -48,48 -71,24 h -120"
             id="path586" />
        </g>
      </g>
    </g>
    <g
       style="fill:#009600;fill-opacity:0;stroke:#009600;stroke-width:60;stroke-linecap:round;stroke-linejoin:round;stroke-opacity:1"
       id="g608">
      <path
         d="m 56000,31500 v 1500"
         id="path596" />
      <path
         d="m 62000,36000 h 1500"
         id="path598" />
      <path
         d="m 66500,36000 h 1500"
         id="path600" />
      <path
         d="m 72500,36000 v 1500"
         id="path602" />
      <path
         d="m 71000,36000 h 1500"
         id="path604" />
      <path
         d="m 56000,45000 v 1500"
         id="path606" />
    </g>
    <g
       style="fill:#000084;fill-opacity:0;stroke:#000084;stroke-width:60;stroke-linecap:round;stroke-linejoin:round;stroke-opacity:1"
       id="g630">
      <path
         d="m 61760,36760 480,480"
         id="path610" />
      <path
         d="m 62240,36760 -480,480"
         id="path612" />
      <path
         d="m 61760,37760 480,480"
         id="path614" />
      <path
         d="m 62240,37760 -480,480"
         id="path616" />
      <path
         d="m 61760,38760 480,480"
         id="path618" />
      <path
         d="m 62240,38760 -480,480"
         id="path620" />
      <path
         d="m 61760,40760 480,480"
         id="path622" />
      <path
         d="m 62240,40760 -480,480"
         id="path624" />
      <path
         d="m 61760,39760 480,480"
         id="path626" />
      <path
         d="m 62240,39760 -480,480"
         id="path628" />
    </g>
  </g>
  <metadata
     id="metadata1784">
    <rdf:RDF>
      <cc:Work
         rdf:about="">
        <dc:title>SVG Picture created as pwm-phase-correct.svg date 2022/08/31 13:13:54 </dc:title>
      </cc:Work>
    </rdf:RDF>
  </metadata>
</svg>
